<mxfile host="app.diagrams.net" modified="2021-01-07T02:10:42.123Z" agent="5.0 (Windows)" etag="ReGY5b7trDAVZiH51bPo" version="14.1.8" type="github">
  <diagram id="1yw5r1gsNpLzZZ1G7bqb" name="Page-1">
    <mxGraphModel dx="1422" dy="763" grid="1" gridSize="10" guides="1" tooltips="1" connect="1" arrows="1" fold="1" page="1" pageScale="1" pageWidth="827" pageHeight="1169" math="0" shadow="0">
      <root>
        <mxCell id="0" />
        <mxCell id="1" parent="0" />
        <mxCell id="6jU305ziCKu4_IJmh-_--1" value="" style="rounded=0;whiteSpace=wrap;html=1;" parent="1" vertex="1">
          <mxGeometry width="480" height="270" as="geometry" />
        </mxCell>
        <mxCell id="6jU305ziCKu4_IJmh-_--2" value="photo" style="whiteSpace=wrap;html=1;aspect=fixed;" parent="1" vertex="1">
          <mxGeometry x="70" y="119" width="32" height="32" as="geometry" />
        </mxCell>
        <mxCell id="6jU305ziCKu4_IJmh-_--3" value="bur" style="whiteSpace=wrap;html=1;aspect=fixed;" parent="1" vertex="1">
          <mxGeometry x="224" y="119" width="32" height="32" as="geometry" />
        </mxCell>
        <mxCell id="6jU305ziCKu4_IJmh-_--4" value="video" style="whiteSpace=wrap;html=1;aspect=fixed;" parent="1" vertex="1">
          <mxGeometry x="381.5" y="119" width="32" height="32" as="geometry" />
        </mxCell>
        <mxCell id="6jU305ziCKu4_IJmh-_--5" value="home" style="whiteSpace=wrap;html=1;aspect=fixed;" parent="1" vertex="1">
          <mxGeometry x="444" y="4" width="32" height="32" as="geometry" />
        </mxCell>
        <mxCell id="6jU305ziCKu4_IJmh-_--11" value="0" style="text;html=1;strokeColor=none;fillColor=none;align=center;verticalAlign=middle;whiteSpace=wrap;rounded=0;" parent="1" vertex="1">
          <mxGeometry x="440" y="36" width="40" height="20" as="geometry" />
        </mxCell>
        <mxCell id="ZWvmrOfOJlqCnTGemyqP-1" value="8" style="text;html=1;strokeColor=none;fillColor=none;align=center;verticalAlign=middle;whiteSpace=wrap;rounded=0;" vertex="1" parent="1">
          <mxGeometry x="66" y="160" width="40" height="20" as="geometry" />
        </mxCell>
        <mxCell id="ZWvmrOfOJlqCnTGemyqP-3" value="9" style="text;html=1;align=center;verticalAlign=middle;resizable=0;points=[];autosize=1;" vertex="1" parent="1">
          <mxGeometry x="230" y="160" width="20" height="20" as="geometry" />
        </mxCell>
        <mxCell id="ZWvmrOfOJlqCnTGemyqP-4" value="10" style="text;html=1;strokeColor=none;fillColor=none;align=center;verticalAlign=middle;whiteSpace=wrap;rounded=0;" vertex="1" parent="1">
          <mxGeometry x="381.5" y="160" width="40" height="20" as="geometry" />
        </mxCell>
      </root>
    </mxGraphModel>
  </diagram>
</mxfile>
